<svg width="150" height="150" viewBox="0 0 150 150" fill="none" xmlns="http://www.w3.org/2000/svg">
<rect width="149.707" height="149.707" rx="30" fill="white"/>
<g clip-path="url(#clip0_42_6)">
<path fill-rule="evenodd" clip-rule="evenodd" d="M72.434 27.202C73.1281 25.5287 74.1196 24.3046 73.555 21.8474C72.377 22.385 67.4529 26.679 65.9914 27.8584C64.6206 28.9642 61.5968 31.6329 60.1591 32.3308C55.2947 34.6923 50.5204 39.5765 47.7379 43.9584C46.9565 45.1887 45.8757 47.6001 45.1439 48.4929C43.6963 47.9339 42.7428 47.2667 40.9675 46.7461C29.6738 43.434 17.8051 51.9179 18.0024 64.1465C18.1692 74.4777 26.5152 81.8953 36.3029 81.8053C40.6207 81.7657 42.5768 80.5217 45.6353 79.0725C46.3491 79.8674 46.7652 81.026 47.3735 82.0052C48.7686 84.2498 51.8115 88.377 53.7858 89.5708C53.2311 94.1973 52.4422 96.3605 53.5488 101.316C55.024 107.922 58.6146 113.13 63.9752 116.893C65.1965 117.75 66.679 118.533 68.0916 119.171C69.4836 119.798 71.8923 120.185 72.9247 120.978C73.1842 121.307 74.0931 125.677 77.1415 127.121C76.3059 124.323 76.5608 124.235 76.883 121.277C77.4192 122.326 78.9414 128.992 81.6336 130C81.0726 128.118 79.9995 124.72 81.0052 122.448C82.0439 123.389 82.279 124.816 83.49 125.429C83.4804 124.071 83.6265 122.793 84.0122 121.529C84.4476 120.102 85.6051 120.303 86.968 119.818C93.1319 117.629 98.3118 112.85 101.224 106.833C106.815 95.2795 101.042 85.2497 101.067 84.7209C101.067 84.7121 103.844 80.0234 104.282 79.0893C106.947 80.0974 108.225 81.3418 111.959 81.7174C115.326 82.0561 118.519 81.5254 121.106 80.3861C125.693 78.3657 129.498 74.5656 131.138 69.3115C135.527 55.2514 122.387 42.9071 109.008 46.7524C107.225 47.2645 106.155 48.046 104.779 48.4591C101.077 40.3256 95.3178 34.6484 87.1889 31.0237C86.0799 30.5293 84.3934 30.2002 83.4479 29.6052C83.8787 28.2297 84.7108 26.1877 83.9795 24.6639C83.3514 24.5432 80.3088 27.5625 79.2641 28.1033C79.7098 27.0477 83.1596 22.5122 81.4964 20C80.6847 20.426 80.0402 21.1247 79.28 21.755L72.4338 27.2023L72.434 27.202ZM68.237 75.9053L68.4899 78.5975C68.9185 78.9491 68.862 79.1517 68.9356 79.4642C69.3303 78.9499 68.0883 75.7676 71.3662 73.8859C72.3638 73.3132 73.9015 73.169 75.1652 73.6432C76.7473 74.2368 76.7666 74.7465 77.579 75.5887C78.4008 74.9479 78.3599 74.5889 79.48 74.0253C80.8255 73.6893 82.1404 73.792 83.1495 74.4974C84.707 75.5863 84.1508 76.7235 84.9621 77.7239C85.4107 75.2549 84.7 73.379 83.105 72.3383C80.0811 70.3656 78.4803 72.4657 77.3747 72.3508C77.0127 72.3131 74.4072 70.2675 71.3633 71.6778C69.9454 72.3349 68.513 74.0445 68.237 75.9048V75.9053ZM70.6905 77.1704C70.4996 78.0743 71.7359 78.5121 72.9062 79.5715C75.0182 81.4832 74.5241 81.3241 76.4222 81.3109L76.2857 80.2642C75.5938 79.5232 75.1361 76.4365 74.8488 75.4224L70.6907 77.1704H70.6905ZM78.776 80.4036C80.6827 80.2174 82.6667 77.151 82.9743 76.328C82.0713 76.0793 80.8298 75.3523 79.9377 75.5033C79.4041 76.9429 78.8956 78.881 78.7758 80.4036H78.776ZM105.842 50.9173C106.086 52.0725 107.176 54.7255 107.142 55.9038C109.329 54.3521 110.818 52.8616 114.909 53.0073C118.139 53.1223 120.727 54.8345 121.946 56.5695C120.452 56.0422 118.153 54.1526 114.835 54.7515C112.262 55.2159 109.532 56.4762 108.721 58.0214C109.142 58.8213 109.809 59.2644 110.363 60.3471C111.276 62.132 110.453 61.4619 112.429 62.1952C118.881 64.5888 116.225 74.5133 109.311 73.3905L108.361 73.1142C108.303 73.0885 108.24 73.0559 108.185 73.0283C107.737 72.8029 107.857 72.8447 107.673 72.7146C114.032 72.5819 114.726 67.1164 111.314 64.2425C110.771 67.2229 109.925 68.6803 108.21 70.2137C106.777 71.4946 107.145 71.0715 106.557 73.2162C106.24 74.3724 105.791 75.6154 105.429 76.639C106.511 77.9473 110.663 79.2187 112.927 79.33C129.444 80.1437 135.551 59.1729 122.154 50.7882C117.047 47.5922 108.968 47.8739 105.841 50.9173H105.842ZM61.3764 76.1857C59.3339 76.2317 57.3528 76.7238 54.9607 76.6357C52.4865 76.5442 51.0857 75.9118 49.0403 75.5827C49.6405 76.3481 50.6267 76.8207 51.5328 77.1169C52.6295 77.4755 53.602 77.6663 54.9689 77.6694C57.349 77.6747 59.7303 77.1539 61.3766 76.1854L61.3764 76.1857ZM91.9907 74.4616C93.0335 75.1399 94.8846 75.4911 96.4722 75.3747C98.2138 75.2465 99.324 74.7019 100.352 73.8011C97.127 74.7336 95.3361 74.3493 91.9909 74.4616H91.9907ZM108.814 65.0491L93.2869 65.0201C92.5124 65.233 92.9497 65.8491 91.7402 66.7779C87.7744 69.8237 84.7123 65.0321 84.6899 65.0249L79.293 65.0237C80.2467 69.3816 81.6757 65.8174 86.0475 69.4075C88.3782 71.3213 86.9413 72.4976 94.0238 72.5113C100.21 72.5231 107.974 69.9722 108.814 65.0489V65.0491ZM79.0874 63.8548L108.996 63.8793C108.969 58.1303 100.313 55.3083 94.0238 55.322C87.9467 55.3349 79.3714 57.9285 79.0874 63.8548ZM76.5213 57.4945C77.3956 56.1553 78.2035 55.3724 79.3796 54.4325C81.1224 53.0395 82.3637 52.743 83.0544 52.1459C80.8154 52.2635 79.5531 53.0155 77.8127 53.6023L76.9495 52.0091C75.8429 52.2899 76.3902 52.4685 75.2661 51.7619C74.5431 51.3075 73.9776 51.009 73.1842 50.6305C71.9566 50.0451 69.8527 49.1585 68.4066 48.9811C71.3568 51.3191 74.5581 51.0994 76.5213 57.4945ZM44.5932 76.6388C43.5758 71.1101 41.6953 72.2615 39.2909 68.0176C38.6298 66.8507 38.5783 65.6273 38.076 64.6997C36.8886 66.1709 35.9929 68.0164 37.2556 70.3056C38.2113 72.0383 39.7861 72.6524 42.2971 72.718C39.8993 74.4261 35.6163 73.2273 34.2799 69.8249C32.0623 64.1781 38.0123 61.9861 38.0209 61.9782C38.4618 61.1883 38.5987 59.9945 38.9496 59.1948C39.3773 58.2206 39.8237 57.6914 40.2393 56.7887C38.2077 55.9765 37.5264 54.8136 34.2932 54.6468C31.7749 54.5167 29.7965 55.8133 28.0905 56.5239C30.7473 52.3216 38.7244 51.9116 41.645 55.1122C43.4451 54.2304 43.9622 52.8986 44.1639 50.917C37.3293 45.2302 20.3765 49.4722 20.5007 64.146C20.5536 70.387 24.363 75.2398 28.2443 77.3223C30.9221 78.7591 33.1349 79.4308 36.8027 79.3442C39.2454 79.2866 43.3113 77.9817 44.593 76.6386L44.5932 76.6388ZM40.4968 63.8625L72.6987 63.8767C73.1055 56.3711 64.4077 52.3602 56.6886 52.3528C49.0151 52.3453 40.0403 56.3581 40.4968 63.8628V63.8625ZM72.4937 65.0227C63.574 65.0175 67.8697 64.8989 65.2658 66.8214C63.8253 67.8851 61.4683 68.0505 59.8619 66.8699C58.5005 65.8695 59.0162 65.2227 58.1624 65.0175L40.7326 65.0196C41.9557 72.2276 53.6373 75.528 61.9773 73.5791C67.3184 72.3308 64.2296 70.8092 69.1055 68.2005C71.3063 67.0232 71.8844 68.0051 72.4939 65.0227H72.4937ZM64.1805 79.0171C62.2451 79.6214 59.0745 84.281 57.8801 86.8815C52.9577 97.5999 57.4951 110.47 67.9513 115.871C83.5292 123.919 101.113 111.886 100.709 95.9914C98.5553 94.4692 93.0982 93.5497 89.8491 93.5627C82.5358 93.592 75.6458 96.3156 69.9394 100.149C68.7619 100.94 65.3912 103.406 64.4137 104.447C63.1762 105.765 64.7179 105.212 63.5011 106.433C62.075 107.034 59.8802 101.523 63.0891 103.655C63.9966 101.657 67.6414 97.808 69.2494 96.5148C71.6798 94.5599 74.4779 92.8758 78.044 91.8121C83.6274 90.1466 89.9908 90.6161 95.6578 92.402C97.3463 92.9341 99.1271 93.8248 100.619 94.247C100.499 89.165 97.5693 83.6526 94.2591 80.3225C93.6471 79.7066 91.2834 77.5993 90.3783 77.4702C90.1552 77.198 90.2633 77.295 89.9682 77.0413C89.1199 76.3119 87.1559 75.5575 86.1654 75.1526C86.3218 73.4471 84.27 71.5035 83.0693 70.9066C80.2517 69.5054 78.2124 71.2645 76.8501 70.7496C74.3689 69.8119 72.9098 69.5076 70.4741 70.7871C69.2879 71.4102 67.0072 73.4162 67.3141 75.3271C67.2756 75.3895 67.2469 75.4207 67.2342 75.5321C67.2238 75.6207 67.2106 75.7047 67.1949 75.7856C67.2103 75.7049 67.2238 75.6209 67.2342 75.5321L64.181 79.0175L64.1805 79.0171Z" fill="black"/>
</g>
<defs>
<clipPath id="clip0_42_6">
<rect width="114" height="110" fill="white" transform="translate(18 20)"/>
</clipPath>
</defs>
</svg>
