<svg width="21" height="21" viewBox="0 0 21 21" fill="none" xmlns="http://www.w3.org/2000/svg">
<path d="M13.4173 15.2917L14.4951 16.7672C14.5963 16.9273 14.7907 16.9988 14.9682 16.9354C15.6381 16.6962 17.2983 16.0477 18.6653 15.0605C18.7719 14.9835 18.8335 14.8552 18.8326 14.7228C18.8326 7.37508 16.7506 5.29175 16.7506 5.29175C16.7506 5.29175 15.084 4.33519 13.2956 4.04676C13.1196 4.01838 12.9473 4.11266 12.8691 4.27417L12.4982 5.03906C12.4982 5.03906 11.5711 4.84506 10.5 4.84506C9.42889 4.84506 8.50172 5.03906 8.50172 5.03906L8.1309 4.27417C8.05259 4.11266 7.88034 4.01838 7.70438 4.04676C5.9173 4.33497 4.25063 5.29175 4.25063 5.29175C4.25063 5.29175 2.16731 7.37508 2.16731 14.7228C2.16647 14.8552 2.22801 14.9835 2.33463 15.0605C3.70161 16.0477 5.36189 16.6962 6.03169 16.9354C6.20918 16.9988 6.40361 16.9273 6.50482 16.7672L7.58396 15.2917" fill="white"/>
<path d="M15.084 14.4583C15.084 14.4583 13.1714 15.7083 10.5006 15.7083C7.82986 15.7083 5.9173 14.4583 5.9173 14.4583" stroke="#0F0F0F" stroke-width="1.25" stroke-linecap="round" stroke-linejoin="round"/>
<path d="M14.8757 10.7084C14.8757 11.6289 14.2228 12.3751 13.4174 12.3751C12.612 12.3751 11.959 11.6289 11.959 10.7084C11.959 9.78791 12.612 9.04175 13.4174 9.04175C14.2228 9.04175 14.8757 9.78791 14.8757 10.7084Z" stroke="#0F0F0F" stroke-width="1.25"/>
<path d="M9.04229 10.7084C9.04229 11.6289 8.38936 12.3751 7.58394 12.3751C6.77854 12.3751 6.12561 11.6289 6.12561 10.7084C6.12561 9.78791 6.77854 9.04175 7.58394 9.04175C8.38936 9.04175 9.04229 9.78791 9.04229 10.7084Z" stroke="#0F0F0F" stroke-width="1.25"/>
</svg>
