<svg width="21" height="21" viewBox="0 0 21 21" fill="none" xmlns="http://www.w3.org/2000/svg">
<path d="M5.93111 14.7611C6.2598 15.2422 7.25735 16.2691 8.61806 16.5278L5.93111 14.7611ZM8.72022 18.8334C7.86317 18.6922 2.16666 16.8382 2.16666 10.5772C2.16666 4.71949 7.16824 2.16675 10.5007 2.16675C13.833 2.16675 18.8333 4.71949 18.8333 10.5772C18.8333 16.8382 13.1368 18.6922 12.2797 18.8334C12.2797 18.8334 12.1056 15.9856 12.2072 15.4975C12.3088 15.0095 11.9627 14.2241 11.9627 14.2241C12.7718 13.9213 14.0036 13.4873 14.4167 12.3229C14.7373 11.4194 14.939 10.1074 14.0423 8.87416C14.0423 8.87416 14.2765 6.88182 13.833 6.80465C13.3896 6.72747 12.0832 7.59335 12.0832 7.59335C11.7027 7.48548 10.8536 7.27905 10.5015 7.31624C10.1493 7.27905 9.29732 7.48548 8.91682 7.59335C8.91682 7.59335 7.6104 6.72747 7.16696 6.80465C6.72351 6.88182 6.95763 8.87416 6.95763 8.87416C6.06096 10.1074 6.26262 11.4194 6.58324 12.3229C6.99645 13.4873 8.22819 13.9213 9.03732 14.2241C9.03732 14.2241 8.69119 15.0095 8.79278 15.4975C8.89441 15.9856 8.72022 18.8334 8.72022 18.8334Z" fill="white"/>
</svg>
